# Blender v3.5.1 OBJ File: ''
# www.blender.org
mtllib BUTON.mtl
o button_cube.006
v 0.755937 -0.921875 -1.069375
v 0.000000 -0.921875 -1.069375
v 0.000000 -0.368750 -1.069375
v 0.755937 -0.368750 -1.069375
v 0.755937 -0.921875 -0.885000
v 0.755937 -0.368750 -0.885000
v 0.000000 -0.921875 -0.885000
v 0.000000 -0.368750 -0.885000
v 0.921875 -1.475000 -1.475000
v -0.921875 -1.475000 -1.475000
v -0.921875 -0.921875 -1.475000
v 0.921875 -0.921875 -1.475000
v 0.921875 -1.475000 1.475000
v 0.921875 -0.921875 1.475000
v -0.921875 -1.475000 1.475000
v -0.921875 -0.921875 1.475000
v 0.460937 -0.854096 0.023995
v 0.276562 -0.854096 0.023995
v 0.276562 0.338286 -0.469906
v 0.460937 0.338286 -0.469906
v 0.460937 -0.783539 0.194335
v 0.460937 0.408843 -0.299566
v 0.276562 -0.783539 0.194335
v 0.276562 0.408843 -0.299566
v 0.645312 0.267729 -0.640247
v 0.092187 0.267729 -0.640247
v 0.092187 0.778749 -0.851918
v 0.645312 0.778749 -0.851918
v 0.645312 0.479400 -0.129226
v 0.645312 0.990421 -0.340898
v 0.092187 0.479400 -0.129226
v 0.092187 0.990421 -0.340898
v 0.000000 -0.921875 -1.475000
v -0.921875 -0.921875 -1.475000
v -0.921875 -0.553125 -1.475000
v 0.000000 -0.553125 -1.475000
v 0.000000 -0.921875 1.475000
v 0.000000 -0.553125 1.475000
v -0.921875 -0.921875 1.475000
v -0.921875 -0.553125 1.475000
v 0.921875 -0.921875 -1.475000
v 0.000000 -0.921875 -1.475000
v 0.000000 -0.553125 -1.475000
v 0.921875 -0.553125 -1.475000
v 0.921875 -0.921875 -1.069375
v 0.921875 -0.553125 -1.069375
v 0.000000 -0.921875 -1.069375
v 0.000000 -0.553125 -1.069375
v 0.921875 -0.921875 1.069375
v 0.000000 -0.921875 1.069375
v 0.000000 -0.553125 1.069375
v 0.921875 -0.553125 1.069375
v 0.921875 -0.921875 1.475000
v 0.921875 -0.553125 1.475000
v 0.000000 -0.921875 1.475000
v 0.000000 -0.553125 1.475000
v 0.921875 -0.921875 -1.069375
v 0.755937 -0.921875 -1.069375
v 0.755937 -0.553125 -1.069375
v 0.921875 -0.553125 -1.069375
v 0.921875 -0.921875 1.069375
v 0.921875 -0.553125 1.069375
v 0.755937 -0.921875 1.069375
v 0.755937 -0.553125 1.069375
v 0.755937 -0.921875 0.885000
v 0.000000 -0.921875 0.885000
v 0.000000 -0.368750 0.885000
v 0.755937 -0.368750 0.885000
v 0.755937 -0.921875 1.069375
v 0.755937 -0.368750 1.069375
v 0.000000 -0.921875 1.069375
v 0.000000 -0.368750 1.069375
v 0.184375 -0.921875 -0.885000
v 0.000000 -0.921875 -0.885000
v 0.000000 -0.368750 -0.885000
v 0.184375 -0.368750 -0.885000
v 0.184375 -0.921875 0.885000
v 0.184375 -0.368750 0.885000
v 0.000000 -0.921875 0.885000
v 0.000000 -0.368750 0.885000
v 0.755937 -0.921875 -0.885000
v 0.571562 -0.921875 -0.885000
v 0.571562 -0.368750 -0.885000
v 0.755937 -0.368750 -0.885000
v 0.755937 -0.921875 0.885000
v 0.755937 -0.368750 0.885000
v 0.571562 -0.921875 0.885000
v 0.571562 -0.368750 0.885000
vt 0.625000 0.951172
vt 0.881250 0.951172
vt 0.881250 0.968750
vt 0.625000 0.968750
vt 0.599219 0.947266
vt 0.601172 0.947266
vt 0.601172 0.964844
vt 0.599219 0.964844
vt 0.666016 0.945312
vt 0.875391 0.945312
vt 0.875391 0.966797
vt 0.666016 0.966797
vt 0.591406 0.949219
vt 0.550391 0.949219
vt 0.550391 0.958984
vt 0.591406 0.958984
vt 0.177734 0.750000
vt 0.433984 0.750000
vt 0.433984 0.812500
vt 0.177734 0.812500
vt 0.000000 0.937500
vt 0.256250 0.937500
vt 0.256250 1.000000
vt 0.000000 1.000000
vt 0.000000 0.812500
vt 0.484375 0.812500
vt 0.484375 1.000000
vt 0.000000 1.000000
vt 0.000000 0.812500
vt 0.453125 0.812500
vt 0.453125 1.000000
vt 0.000000 1.000000
vt 0.000000 0.812500
vt 0.478516 0.812500
vt 0.478516 1.000000
vt 0.000000 1.000000
vt 0.000000 0.812500
vt 0.443359 0.812500
vt 0.443359 1.000000
vt 0.000000 1.000000
vt 0.923828 0.345703
vt 0.923828 0.570312
vt 0.572266 0.570312
vt 0.572266 0.345703
vt 0.212891 0.000000
vt 0.535156 0.000000
vt 0.535156 0.583984
vt 0.212891 0.583984
vt 0.005859 0.003906
vt 0.193359 0.003906
vt 0.193359 0.353516
vt 0.005859 0.353516
vt 0.011719 0.005859
vt 0.183594 0.005859
vt 0.183594 0.341797
vt 0.011719 0.341797
vt 0.013672 0.011719
vt 0.181641 0.011719
vt 0.181641 0.347656
vt 0.013672 0.347656
vt 0.019531 0.011719
vt 0.177734 0.011719
vt 0.177734 0.333984
vt 0.019531 0.333984
vt 0.037109 0.177734
vt 0.162109 0.177734
vt 0.162109 0.302734
vt 0.037109 0.302734
vt 0.005859 0.000000
vt 0.193359 0.000000
vt 0.193359 0.357422
vt 0.005859 0.357422
vt 0.007812 0.353516
vt 0.195312 0.353516
vt 0.195312 0.650391
vt 0.007812 0.650391
vt 0.019531 0.353516
vt 0.191406 0.353516
vt 0.191406 0.642578
vt 0.019531 0.642578
vt 0.017578 0.363281
vt 0.185547 0.363281
vt 0.185547 0.662109
vt 0.017578 0.662109
vt 0.005859 0.357422
vt 0.197266 0.357422
vt 0.197266 0.648438
vt 0.005859 0.648438
vt 0.050781 0.500000
vt 0.175781 0.500000
vt 0.175781 0.625000
vt 0.050781 0.625000
vt 0.005859 0.150391
vt 0.193359 0.150391
vt 0.193359 0.357422
vt 0.005859 0.357422
vt 0.000000 0.875000
vt 0.312500 0.875000
vt 0.312500 1.000000
vt 0.000000 1.000000
vt 0.648438 0.566406
vt 0.828125 0.566406
vt 0.828125 0.648438
vt 0.648438 0.648438
vt 0.000000 0.875000
vt 0.312500 0.875000
vt 0.312500 1.000000
vt 0.000000 1.000000
vt 0.019531 0.664062
vt 0.468750 0.664062
vt 0.468750 0.789062
vt 0.019531 0.789062
vt 1.000000 0.076172
vt 1.000000 0.292969
vt 0.496094 0.292969
vt 0.496094 0.076172
vt 0.000000 0.000000
vt 0.312500 0.000000
vt 0.312500 1.000000
vt 0.000000 1.000000
vt 0.000000 0.875000
vt 0.312500 0.875000
vt 0.312500 1.000000
vt 0.000000 1.000000
vt 0.000000 0.875000
vt 0.262500 0.875000
vt 0.262500 1.000000
vt 0.000000 1.000000
vt 0.607422 0.527344
vt 0.710938 0.527344
vt 0.710938 0.599609
vt 0.607422 0.599609
vt 0.000000 0.875000
vt 0.262500 0.875000
vt 0.262500 1.000000
vt 0.000000 1.000000
vt 0.232422 0.477734
vt 0.544922 0.477734
vt 0.544922 0.740234
vt 0.232422 0.740234
vt 0.000000 0.737500
vt 0.312500 0.737500
vt 0.312500 1.000000
vt 0.000000 1.000000
vt 0.642578 0.529297
vt 0.882812 0.529297
vt 0.882812 0.628906
vt 0.642578 0.628906
vt 0.000000 0.875000
vt 0.262500 0.875000
vt 0.262500 1.000000
vt 0.000000 1.000000
vt 0.000000 0.875000
vt 0.312500 0.875000
vt 0.312500 1.000000
vt 0.000000 1.000000
vt 0.000000 0.875000
vt 0.262500 0.875000
vt 0.262500 1.000000
vt 0.000000 1.000000
vt 0.000000 0.737500
vt 0.312500 0.737500
vt 0.312500 1.000000
vt 0.000000 0.737500
vt 0.312500 0.737500
vt 0.312500 1.000000
vt 0.000000 1.000000
vt 0.000000 0.875000
vt 0.056250 0.875000
vt 0.056250 1.000000
vt 0.000000 1.000000
vt 0.000000 0.875000
vt 0.475000 0.875000
vt 0.475000 1.000000
vt 0.000000 1.000000
vt 0.000000 0.875000
vt 0.056250 0.875000
vt 0.056250 1.000000
vt 0.000000 1.000000
vt 0.630469 0.474609
vt 0.716797 0.474609
vt 0.716797 0.599609
vt 0.630469 0.599609
vt 0.000000 0.708594
vt 0.056250 0.708594
vt 0.056250 1.000000
vt 0.000000 1.000000
vt 0.000000 0.525000
vt 0.056250 0.525000
vt 0.056250 1.000000
vt 0.000000 1.000000
vt 0.625000 0.951172
vt 0.881250 0.951172
vt 0.881250 0.968750
vt 0.625000 0.968750
vt 0.599219 0.947266
vt 0.601172 0.947266
vt 0.601172 0.964844
vt 0.599219 0.964844
vt 0.666016 0.945312
vt 0.875391 0.945312
vt 0.875391 0.966797
vt 0.666016 0.966797
vt 0.591406 0.949219
vt 0.550391 0.949219
vt 0.550391 0.958984
vt 0.591406 0.958984
vt 0.177734 0.750000
vt 0.433984 0.750000
vt 0.433984 0.812500
vt 0.177734 0.812500
vt 0.000000 0.937500
vt 0.256250 0.937500
vt 0.256250 1.000000
vt 0.000000 1.000000
vt 0.625000 0.951172
vt 0.687500 0.951172
vt 0.687500 0.968750
vt 0.625000 0.968750
vt 0.737891 0.947266
vt 1.000000 0.947266
vt 1.000000 0.964844
vt 0.737891 0.964844
vt 0.666016 0.945312
vt 0.681641 0.945312
vt 0.681641 0.966797
vt 0.666016 0.966797
vt 0.679297 0.949219
vt 1.000000 0.949219
vt 1.000000 0.958984
vt 0.679297 0.958984
vt 0.177734 0.812500
vt 0.177734 0.750000
vt 0.777734 0.750000
vt 0.777734 0.812500
vt 0.600000 0.937500
vt 0.600000 1.000000
vt 0.000000 1.000000
vt 0.000000 0.937500
vt 0.625000 0.951172
vt 0.687500 0.951172
vt 0.687500 0.968750
vt 0.625000 0.968750
vt 0.737891 0.947266
vt 1.000000 0.947266
vt 1.000000 0.964844
vt 0.737891 0.964844
vt 0.666016 0.945312
vt 0.681641 0.945312
vt 0.681641 0.966797
vt 0.666016 0.966797
vt 0.679297 0.949219
vt 1.000000 0.949219
vt 1.000000 0.958984
vt 0.679297 0.958984
vt 0.177734 0.812500
vt 0.177734 0.750000
vt 0.777734 0.750000
vt 0.777734 0.812500
vt 0.600000 0.937500
vt 0.600000 1.000000
vt 0.000000 1.000000
vt 0.000000 0.937500
vn 0.0000 -0.0000 -1.0000
vn 1.0000 0.0000 0.0000
vn 0.0000 0.0000 1.0000
vn -1.0000 0.0000 0.0000
vn 0.0000 1.0000 -0.0000
vn 0.0000 -1.0000 0.0000
vn 0.0000 -0.3827 -0.9239
vn 0.0000 0.3827 0.9239
vn 0.0000 0.9239 -0.3827
vn 0.0000 -0.9239 0.3827
usemtl m_a89ea26a-c915-7d6f-c148-7c479a0f2cb6
s 1
f 1/1/1 2/2/1 3/3/1 4/4/1
f 5/5/2 1/6/2 4/7/2 6/8/2
f 7/9/3 5/10/3 6/11/3 8/12/3
f 2/13/4 7/14/4 8/15/4 3/16/4
f 8/17/5 6/18/5 4/19/5 3/20/5
f 2/21/6 1/22/6 5/23/6 7/24/6
f 9/25/1 10/26/1 11/27/1 12/28/1
f 13/29/2 9/30/2 12/31/2 14/32/2
f 15/33/3 13/34/3 14/35/3 16/36/3
f 10/37/4 15/38/4 16/39/4 11/40/4
f 16/41/5 14/42/5 12/43/5 11/44/5
f 10/45/6 9/46/6 13/47/6 15/48/6
f 17/49/7 18/50/7 19/51/7 20/52/7
f 21/53/2 17/54/2 20/55/2 22/56/2
f 23/57/8 21/58/8 22/59/8 24/60/8
f 18/61/4 23/62/4 24/63/4 19/64/4
f 24/65/9 22/66/9 20/67/9 19/68/9
f 18/69/10 17/70/10 21/71/10 23/72/10
f 25/73/7 26/74/7 27/75/7 28/76/7
f 29/77/2 25/78/2 28/79/2 30/80/2
f 31/81/8 29/82/8 30/83/8 32/84/8
f 26/85/4 31/86/4 32/87/4 27/88/4
f 32/89/9 30/90/9 28/91/9 27/92/9
f 26/93/10 25/94/10 29/95/10 31/96/10
f 33/97/1 34/98/1 35/99/1 36/100/1
f 37/101/2 33/102/2 36/103/2 38/104/2
f 39/105/3 37/106/3 38/107/3 40/108/3
f 34/109/4 39/110/4 40/111/4 35/112/4
f 40/113/5 38/114/5 36/115/5 35/116/5
f 34/117/6 33/118/6 37/119/6 39/120/6
f 41/121/1 42/122/1 43/123/1 44/124/1
f 45/125/2 41/126/2 44/127/2 46/128/2
f 47/129/3 45/130/3 46/131/3 48/132/3
f 42/133/4 47/134/4 48/135/4 43/136/4
f 48/137/5 46/138/5 44/139/5 43/140/5
f 42/141/6 41/142/6 45/143/6 47/144/6
f 49/145/1 50/146/1 51/147/1 52/148/1
f 53/149/2 49/150/2 52/151/2 54/152/2
f 55/153/3 53/154/3 54/155/3 56/156/3
f 50/157/4 55/158/4 56/159/4 51/160/4
f 56/161/5 54/162/5 52/163/5 51/160/5
f 50/164/6 49/165/6 53/166/6 55/167/6
f 57/168/1 58/169/1 59/170/1 60/171/1
f 61/172/2 57/173/2 60/174/2 62/175/2
f 63/176/3 61/177/3 62/178/3 64/179/3
f 58/180/4 63/181/4 64/182/4 59/183/4
f 64/184/5 62/185/5 60/186/5 59/187/5
f 58/188/6 57/189/6 61/190/6 63/191/6
f 65/192/1 66/193/1 67/194/1 68/195/1
f 69/196/2 65/197/2 68/198/2 70/199/2
f 71/200/3 69/201/3 70/202/3 72/203/3
f 66/204/4 71/205/4 72/206/4 67/207/4
f 72/208/5 70/209/5 68/210/5 67/211/5
f 66/212/6 65/213/6 69/214/6 71/215/6
f 73/216/1 74/217/1 75/218/1 76/219/1
f 77/220/2 73/221/2 76/222/2 78/223/2
f 79/224/3 77/225/3 78/226/3 80/227/3
f 74/228/4 79/229/4 80/230/4 75/231/4
f 80/232/5 78/233/5 76/234/5 75/235/5
f 74/236/6 73/237/6 77/238/6 79/239/6
f 81/240/1 82/241/1 83/242/1 84/243/1
f 85/244/2 81/245/2 84/246/2 86/247/2
f 87/248/3 85/249/3 86/250/3 88/251/3
f 82/252/4 87/253/4 88/254/4 83/255/4
f 88/256/5 86/257/5 84/258/5 83/259/5
f 82/260/6 81/261/6 85/262/6 87/263/6
