# Blender v3.5.1 OBJ File: ''
# www.blender.org
mtllib conserv.mtl
o conserv1.ogf_00
v 0.070640 0.055483 0.000000
v 0.065262 0.055483 -0.027033
v 0.070640 0.001676 -0.000000
v 0.065262 0.001676 -0.027033
v 0.049950 0.055483 -0.049950
v 0.049950 0.001676 -0.049950
v 0.027033 0.055483 -0.065262
v 0.027033 0.001676 -0.065262
v -0.000000 0.055483 -0.070640
v -0.000000 0.001676 -0.070640
v -0.027033 0.055483 -0.065262
v -0.027033 0.001676 -0.065262
v -0.049950 0.055483 -0.049950
v -0.049950 0.001676 -0.049950
v -0.065262 0.055483 -0.027033
v -0.065262 0.001676 -0.027033
v -0.070640 0.055483 0.000000
v -0.070640 0.001676 0.000000
v -0.065262 0.055483 0.027033
v -0.065262 0.001676 0.027033
v -0.049950 0.055483 0.049950
v -0.049950 0.001676 0.049950
v -0.027033 0.055483 0.065262
v -0.027033 0.001676 0.065262
v 0.000000 0.055483 0.070640
v 0.000000 0.001676 0.070640
v 0.027033 0.055483 0.065262
v 0.027033 0.001676 0.065262
v 0.049950 0.055483 0.049950
v 0.049950 0.001676 0.049950
v 0.065262 0.055483 0.027033
v 0.065262 0.001676 0.027033
vt 0.993541 0.203512
vt 0.993541 0.006252
vt 0.974981 0.203512
vt 0.974981 0.006252
vt 0.922128 0.203512
vt 0.922128 0.006252
vt 0.843028 0.203512
vt 0.843028 0.006252
vt 0.749722 0.203512
vt 0.749722 0.006252
vt 0.656417 0.203512
vt 0.656417 0.006252
vt 0.577317 0.203512
vt 0.577317 0.006252
vt 0.524463 0.203512
vt 0.524463 0.006252
vt 0.505904 0.203512
vt 0.505904 0.006252
vt 0.524464 0.203512
vt 0.524464 0.006252
vt 0.577317 0.203512
vt 0.577317 0.006252
vt 0.656417 0.203512
vt 0.656417 0.006252
vt 0.749722 0.203512
vt 0.749722 0.006252
vt 0.843028 0.203512
vt 0.843028 0.006252
vt 0.922128 0.203512
vt 0.922128 0.006252
vt 0.974981 0.203512
vt 0.974981 0.006252
vt 0.989031 0.284629
vt 0.998471 0.332090
vt 0.962146 0.244393
vt 0.989031 0.379551
vt 0.962146 0.419787
vt 0.921911 0.446672
vt 0.874449 0.456112
vt 0.826988 0.446672
vt 0.786753 0.419787
vt 0.759868 0.379551
vt 0.750427 0.332090
vt 0.759868 0.284629
vt 0.786753 0.244393
vt 0.826988 0.217509
vt 0.874449 0.208068
vt 0.921911 0.217509
vt 0.718156 0.349845
vt 0.691604 0.367587
vt 0.735898 0.323293
vt 0.660283 0.373817
vt 0.628963 0.367587
vt 0.602410 0.349846
vt 0.584669 0.323293
vt 0.578438 0.291973
vt 0.584669 0.260652
vt 0.602410 0.234100
vt 0.628962 0.216358
vt 0.660283 0.210128
vt 0.691603 0.216358
vt 0.718156 0.234100
vt 0.735898 0.260652
vt 0.735898 0.322266
vt 0.742127 0.291973
vn 0.9978 0.0000 0.0662
vn 0.9978 0.0000 -0.0662
vn 0.9472 0.0000 -0.3207
vn 0.8965 0.0000 -0.4430
vn 0.7523 0.0000 -0.6588
vn 0.6588 -0.0000 -0.7523
vn 0.4430 0.0000 -0.8965
vn 0.3207 0.0000 -0.9472
vn 0.0662 0.0000 -0.9978
vn -0.0662 -0.0000 -0.9978
vn -0.3207 -0.0000 -0.9472
vn -0.4430 -0.0000 -0.8965
vn -0.6588 -0.0000 -0.7523
vn -0.7523 0.0000 -0.6588
vn -0.8965 0.0000 -0.4430
vn -0.9472 0.0000 -0.3207
vn -0.9978 0.0000 -0.0662
vn -0.9978 0.0000 0.0662
vn -0.9472 0.0000 0.3207
vn -0.8965 -0.0000 0.4430
vn -0.7523 0.0000 0.6588
vn -0.6588 -0.0000 0.7523
vn -0.4430 -0.0000 0.8965
vn -0.3207 -0.0000 0.9472
vn -0.0662 -0.0000 0.9978
vn 0.0662 -0.0000 0.9978
vn 0.3207 -0.0000 0.9472
vn 0.4430 0.0000 0.8965
vn 0.6588 0.0000 0.7523
vn 0.7523 0.0000 0.6588
vn 0.8965 0.0000 0.4430
vn 0.9472 0.0000 0.3207
vn 0.0000 1.0000 0.0000
vn 0.0000 -1.0000 -0.0000
usemtl item\item_food
s 1
f 1/1/1 3/2/2 2/3/3
f 4/4/4 2/3/3 3/2/2
f 2/3/3 4/4/4 5/5/5
f 6/6/6 5/5/5 4/4/4
f 5/5/5 6/6/6 7/7/7
f 8/8/8 7/7/7 6/6/6
f 7/7/7 8/8/8 9/9/9
f 10/10/10 9/9/9 8/8/8
f 9/9/9 10/10/10 11/11/11
f 12/12/12 11/11/11 10/10/10
f 11/11/11 12/12/12 13/13/13
f 14/14/14 13/13/13 12/12/12
f 13/13/13 14/14/14 15/15/15
f 16/16/16 15/15/15 14/14/14
f 15/15/15 16/16/16 17/17/17
f 18/18/18 17/17/17 16/16/16
f 17/17/17 18/18/18 19/19/19
f 20/20/20 19/19/19 18/18/18
f 19/19/19 20/20/20 21/21/21
f 22/22/22 21/21/21 20/20/20
f 21/21/21 22/22/22 23/23/23
f 24/24/24 23/23/23 22/22/22
f 23/23/23 24/24/24 25/25/25
f 26/26/26 25/25/25 24/24/24
f 25/25/25 26/26/26 27/27/27
f 28/28/28 27/27/27 26/26/26
f 27/27/27 28/28/28 29/29/29
f 30/30/30 29/29/29 28/28/28
f 29/29/29 30/30/30 31/31/31
f 32/32/32 31/31/31 30/30/30
f 31/31/31 32/32/32 1/1/1
f 3/2/2 1/1/1 32/32/32
f 31/33/33 1/34/33 29/35/33
f 2/36/33 5/37/33 1/34/33
f 7/38/33 9/39/33 5/37/33
f 5/37/33 9/39/33 1/34/33
f 11/40/33 13/41/33 9/39/33
f 15/42/33 17/43/33 13/41/33
f 13/41/33 17/43/33 9/39/33
f 9/39/33 17/43/33 1/34/33
f 19/44/33 21/45/33 17/43/33
f 23/46/33 25/47/33 21/45/33
f 21/45/33 25/47/33 17/43/33
f 17/43/33 25/47/33 1/34/33
f 1/34/33 25/47/33 29/35/33
f 25/47/33 27/48/33 29/35/33
f 30/49/34 28/50/34 32/51/34
f 26/52/34 24/53/34 28/50/34
f 22/54/34 20/55/34 24/53/34
f 24/53/34 20/55/34 28/50/34
f 18/56/34 16/57/34 20/55/34
f 14/58/34 12/59/34 16/57/34
f 16/57/34 12/59/34 20/55/34
f 10/60/34 8/61/34 12/59/34
f 6/62/34 4/63/34 8/61/34
f 8/61/34 4/63/34 12/59/34
f 12/59/34 4/63/34 20/55/34
f 20/55/34 4/63/34 28/50/34
f 28/50/34 4/63/34 32/51/34
f 32/64/34 4/63/34 3/65/34
