# Blender v3.5.1 OBJ File: ''
# www.blender.org
mtllib mocinfix.mtl
o cub_cube.018
v -0.018750 -0.044134 -0.143750
v -0.018750 -0.044134 -0.162500
v -0.018750 -0.106634 -0.143750
v -0.018750 -0.106634 -0.162500
v -0.037500 -0.044134 -0.162500
v -0.037500 -0.044134 -0.143750
v -0.037500 -0.106634 -0.162500
v -0.037500 -0.106634 -0.143750
v 0.000000 0.023075 -0.348246
v 0.000000 -0.048678 -0.521474
v 0.000000 -0.092410 -0.300411
v 0.000000 -0.164163 -0.473638
v -0.062500 -0.048678 -0.521474
v -0.062500 0.023075 -0.348246
v -0.062500 -0.164163 -0.473638
v -0.062500 -0.092410 -0.300411
v 0.000000 0.013168 -0.208844
v 0.000000 -0.034667 -0.324329
v 0.000000 -0.044574 -0.184926
v 0.000000 -0.092410 -0.300411
v -0.062500 -0.034667 -0.324329
v -0.062500 0.013168 -0.208844
v -0.062500 -0.092410 -0.300411
v -0.062500 -0.044574 -0.184926
v 0.000000 0.080866 0.225000
v 0.000000 0.080865 -0.212500
v 0.000000 -0.044134 0.225000
v 0.000000 -0.044135 -0.212500
v -0.062500 0.080865 -0.212500
v -0.062500 0.080866 0.225000
v -0.062500 -0.044135 -0.212500
v -0.062500 -0.044134 0.225000
v 0.000000 -0.015744 -0.258402
v 0.000000 0.022524 -0.350790
v 0.000000 -0.073487 -0.282320
v 0.000000 -0.035218 -0.374708
v -0.062500 0.022524 -0.350790
v -0.062500 -0.015744 -0.258402
v -0.062500 -0.035218 -0.374708
v -0.062500 -0.073487 -0.282320
v 0.000000 0.080866 0.537500
v 0.000000 0.080866 0.162500
v 0.000000 0.018366 0.537500
v 0.000000 0.018366 0.162500
v -0.062500 0.080866 0.162500
v -0.062500 0.080866 0.537500
v -0.062500 0.018366 0.162500
v -0.062500 0.018366 0.537500
v -0.018750 -0.106634 -0.031250
v -0.018750 -0.106634 -0.143750
v -0.018750 -0.125385 -0.031250
v -0.018750 -0.125385 -0.143750
v -0.037500 -0.106634 -0.143750
v -0.037500 -0.106634 -0.031250
v -0.037500 -0.125385 -0.143750
v -0.037500 -0.125385 -0.031250
v -0.018750 -0.112126 -0.128455
v -0.018750 -0.090029 -0.150552
v -0.018750 -0.125385 -0.141713
v -0.018750 -0.103287 -0.163810
v -0.037500 -0.090029 -0.150552
v -0.037500 -0.112126 -0.128455
v -0.037500 -0.103287 -0.163810
v -0.037500 -0.125385 -0.141713
v -0.018750 -0.090029 -0.017969
v -0.018750 -0.112126 -0.040066
v -0.018750 -0.103287 -0.004711
v -0.018750 -0.125385 -0.026808
v -0.037500 -0.112126 -0.040066
v -0.037500 -0.090029 -0.017969
v -0.037500 -0.125385 -0.026808
v -0.037500 -0.103287 -0.004711
v -0.018750 -0.044134 -0.006250
v -0.018750 -0.044134 -0.025000
v -0.018750 -0.106634 -0.006250
v -0.018750 -0.106634 -0.025000
v -0.037500 -0.044134 -0.025000
v -0.037500 -0.044134 -0.006250
v -0.037500 -0.106634 -0.025000
v -0.037500 -0.106634 -0.006250
v -0.018750 -0.034708 -0.099708
v -0.018750 -0.027533 -0.117031
v -0.018750 -0.075128 -0.116450
v -0.018750 -0.067953 -0.133773
v -0.037500 -0.027533 -0.117031
v -0.037500 -0.034708 -0.099708
v -0.037500 -0.067953 -0.133773
v -0.037500 -0.075128 -0.116450
v -0.018750 -0.062885 -0.112500
v -0.018750 -0.062885 -0.131250
v -0.018750 -0.094135 -0.112500
v -0.018750 -0.094135 -0.131250
v -0.037500 -0.062885 -0.131250
v -0.037500 -0.062885 -0.112500
v -0.037500 -0.094135 -0.131250
v -0.037500 -0.094135 -0.112500
v -0.018750 0.016621 0.135395
v -0.018750 -0.050348 -0.026284
v -0.018750 -0.041121 0.159312
v -0.018750 -0.108091 -0.002367
v -0.037500 -0.050348 -0.026284
v -0.037500 0.016621 0.135395
v -0.037500 -0.108091 -0.002367
v -0.037500 -0.041121 0.159312
v -0.043750 0.099615 -0.131250
v -0.043750 0.099615 -0.150000
v -0.043750 0.080866 -0.131250
v -0.043750 0.080866 -0.150000
v -0.106250 0.099615 -0.150000
v -0.106250 0.099615 -0.131250
v -0.106250 0.080866 -0.150000
v -0.106250 0.080866 -0.131250
v -0.106250 0.105865 -0.125000
v -0.106250 0.105865 -0.156250
v -0.106250 0.074615 -0.125000
v -0.106250 0.074615 -0.156250
v -0.137500 0.105865 -0.156250
v -0.137500 0.105865 -0.125000
v -0.137500 0.074615 -0.156250
v -0.137500 0.074615 -0.125000
v -0.025000 0.099616 0.312500
v -0.025000 0.099615 -0.200000
v -0.025000 0.080866 0.312500
v -0.025000 0.080865 -0.200000
v -0.043750 0.099615 -0.200000
v -0.043750 0.099616 0.312500
v -0.043750 0.080865 -0.200000
v -0.043750 0.080866 0.312500
v -0.012500 0.118366 0.537500
v -0.012500 0.118366 0.506250
v -0.012500 0.080866 0.537500
v -0.012500 0.080866 0.506250
v -0.050000 0.118366 0.506250
v -0.050000 0.118366 0.537500
v -0.050000 0.080866 0.506250
v -0.050000 0.080866 0.537500
v -0.012500 0.068366 0.543750
v -0.012500 0.068366 0.512500
v -0.012500 0.030866 0.543750
v -0.012500 0.030866 0.512500
v -0.050000 0.068366 0.512500
v -0.050000 0.068366 0.543750
v -0.050000 0.030866 0.512500
v -0.050000 0.030866 0.543750
vt 0.650345 0.976828
vt 0.625648 0.976828
vt 0.625648 0.894529
vt 0.650345 0.894529
vt 0.946727 0.230463
vt 0.971424 0.230463
vt 0.971424 0.312787
vt 0.946727 0.312787
vt 0.979657 0.757356
vt 0.954959 0.757356
vt 0.954959 0.675057
vt 0.979657 0.675057
vt 0.971424 0.395111
vt 0.946727 0.395111
vt 0.946727 0.312787
vt 0.971424 0.312787
vt 0.688808 0.995923
vt 0.688808 0.971226
vt 0.713497 0.971226
vt 0.713497 0.995923
vt 0.971417 0.553601
vt 0.971417 0.578299
vt 0.946727 0.578299
vt 0.946727 0.553601
vt 0.329296 0.894529
vt 0.246972 0.894529
vt 0.246972 0.740916
vt 0.329296 0.740916
vt 0.493945 0.740916
vt 0.493944 0.493944
vt 0.658593 0.493944
vt 0.658593 0.740916
vt 0.658593 0.894529
vt 0.576269 0.894529
vt 0.576269 0.740916
vt 0.658593 0.740916
vt 0.329296 0.823067
vt 0.329296 0.576095
vt 0.493944 0.576095
vt 0.493944 0.823067
vt 0.164648 0.806687
vt 0.082324 0.806687
vt 0.082324 0.576268
vt 0.164648 0.576268
vt 0.164648 0.576268
vt 0.246972 0.576268
vt 0.246972 0.806687
vt 0.164648 0.806687
vt 0.823241 0.910994
vt 0.823241 0.828670
vt 0.900047 0.828670
vt 0.900047 0.910994
vt 0.823241 0.493796
vt 0.823241 0.658444
vt 0.740917 0.658444
vt 0.740917 0.493796
vt 0.664110 0.971226
vt 0.664110 0.888902
vt 0.740917 0.888902
vt 0.740917 0.971226
vt 0.246972 0.740916
vt 0.246972 0.576268
vt 0.329296 0.576268
vt 0.329296 0.740916
vt 0.576269 0.894529
vt 0.493945 0.894529
vt 0.493945 0.740916
vt 0.576269 0.740916
vt 0.823241 0.675057
vt 0.905565 0.675057
vt 0.905565 0.828670
vt 0.823241 0.828670
vt 0.823241 0.823043
vt 0.740917 0.823043
vt 0.740917 0.658444
vt 0.823241 0.658444
vt 0.164648 0.576268
vt 0.164648 0.000000
vt 0.329296 0.000000
vt 0.329296 0.576268
vt 0.740917 0.888902
vt 0.658593 0.888902
vt 0.658593 0.724303
vt 0.740917 0.724303
vt 0.164648 0.000000
vt 0.164648 0.576268
vt 0.000000 0.576268
vt 0.000000 0.000000
vt 0.411620 0.576095
vt 0.329296 0.576095
vt 0.411620 0.000000
vt 0.411620 0.000000
vt 0.493945 0.000000
vt 0.493944 0.576095
vt 0.411620 0.576095
vt 0.900047 0.910994
vt 0.900047 0.828670
vt 0.975310 0.828670
vt 0.975310 0.910994
vt 0.164648 0.938406
vt 0.164648 0.806687
vt 0.246972 0.806687
vt 0.246972 0.938406
vt 0.246972 0.976853
vt 0.246972 0.894529
vt 0.322235 0.894529
vt 0.322235 0.976853
vt 0.164648 0.806687
vt 0.164648 0.938406
vt 0.082324 0.938406
vt 0.082324 0.806687
vt 0.082324 0.927196
vt 0.000000 0.927196
vt 0.000000 0.806776
vt 0.082324 0.806776
vt 0.740917 0.823043
vt 0.823241 0.823043
vt 0.823241 0.943464
vt 0.740917 0.943464
vt 0.329296 0.905392
vt 0.329296 0.823067
vt 0.411596 0.823067
vt 0.411596 0.905392
vt 0.576269 0.493944
vt 0.576269 0.000000
vt 0.658593 0.000000
vt 0.658593 0.493944
vt 0.411596 0.905392
vt 0.411596 0.823067
vt 0.493895 0.823067
vt 0.493895 0.905392
vt 0.576269 0.000000
vt 0.576269 0.493944
vt 0.493945 0.493944
vt 0.493945 0.000000
vt 0.823241 0.493796
vt 0.740917 0.493796
vt 0.740917 0.000000
vt 0.823241 0.000000
vt 0.658593 0.000000
vt 0.740917 0.000000
vt 0.740917 0.493796
vt 0.658593 0.493796
vt 0.946727 0.553601
vt 0.946727 0.528904
vt 0.971417 0.528904
vt 0.971417 0.553601
vt 0.922030 0.578299
vt 0.922030 0.430115
vt 0.946727 0.430115
vt 0.946727 0.578299
vt 0.713497 0.995923
vt 0.713497 0.971226
vt 0.738187 0.971226
vt 0.738187 0.995923
vt 0.930262 0.675057
vt 0.930262 0.823240
vt 0.905565 0.823240
vt 0.905565 0.675057
vt 0.954959 0.823196
vt 0.930262 0.823196
vt 0.930262 0.675057
vt 0.954959 0.675057
vt 0.946727 0.000000
vt 0.971425 0.000000
vt 0.971425 0.148139
vt 0.946727 0.148139
vt 0.997543 0.675057
vt 0.997543 0.699754
vt 0.979657 0.699754
vt 0.979657 0.675057
vt 0.428055 0.995948
vt 0.428055 0.954786
vt 0.452753 0.954786
vt 0.452753 0.995948
vt 0.997543 0.757356
vt 0.997543 0.782054
vt 0.979657 0.782054
vt 0.979657 0.757356
vt 0.996122 0.312787
vt 0.996122 0.353949
vt 0.971425 0.353949
vt 0.971425 0.312787
vt 0.880868 0.990198
vt 0.856170 0.990198
vt 0.856170 0.960388
vt 0.880868 0.960388
vt 0.880868 0.960388
vt 0.905565 0.960388
vt 0.905565 0.990198
vt 0.880868 0.990198
vt 0.975310 0.902761
vt 0.975310 0.878064
vt 0.993196 0.878064
vt 0.993196 0.902761
vt 0.329296 0.995948
vt 0.329296 0.954786
vt 0.353993 0.954786
vt 0.353993 0.995948
vt 0.979657 0.757356
vt 0.979657 0.732659
vt 0.997543 0.732659
vt 0.997543 0.757356
vt 0.996122 0.271625
vt 0.996122 0.312787
vt 0.971425 0.312787
vt 0.971425 0.271625
vt 0.930262 0.990198
vt 0.905565 0.990198
vt 0.905565 0.960388
vt 0.930262 0.960388
vt 0.946727 0.395111
vt 0.971425 0.395111
vt 0.971425 0.424921
vt 0.946727 0.424921
vt 0.971424 0.993293
vt 0.946727 0.993293
vt 0.946727 0.910994
vt 0.971424 0.910994
vt 0.946727 0.148139
vt 0.971424 0.148139
vt 0.971424 0.230463
vt 0.946727 0.230463
vt 0.568021 0.976828
vt 0.543324 0.976828
vt 0.543324 0.894529
vt 0.568021 0.894529
vt 0.946727 0.660623
vt 0.922030 0.660623
vt 0.922030 0.578299
vt 0.946727 0.578299
vt 0.971425 0.424921
vt 0.971425 0.400224
vt 0.996114 0.400224
vt 0.996114 0.424921
vt 0.996114 0.952143
vt 0.996114 0.976841
vt 0.971424 0.976841
vt 0.971424 0.952143
vt 0.996122 0.148139
vt 0.971424 0.148139
vt 0.971424 0.095455
vt 0.996122 0.095455
vt 0.979657 0.814983
vt 0.954959 0.814983
vt 0.954959 0.757356
vt 0.979657 0.757356
vt 0.996122 0.200823
vt 0.971425 0.200823
vt 0.971425 0.148139
vt 0.996122 0.148139
vt 0.971425 0.000000
vt 0.996122 0.000000
vt 0.996122 0.057627
vt 0.971425 0.057627
vt 0.403373 0.979483
vt 0.403373 0.954786
vt 0.425952 0.954786
vt 0.425952 0.979483
vt 0.376572 0.954786
vt 0.376572 0.979483
vt 0.353994 0.979483
vt 0.353994 0.954786
vt 0.996121 0.952143
vt 0.971424 0.952143
vt 0.971424 0.910994
vt 0.996121 0.910994
vt 0.971424 0.230463
vt 0.996122 0.230463
vt 0.996122 0.271625
vt 0.971424 0.271625
vt 0.996122 0.395099
vt 0.971425 0.395099
vt 0.971425 0.353949
vt 0.996122 0.353949
vt 0.403373 0.995948
vt 0.378676 0.995948
vt 0.378676 0.954786
vt 0.403373 0.954786
vt 0.975310 0.878064
vt 0.975310 0.853367
vt 1.000000 0.853367
vt 1.000000 0.878064
vt 1.000000 0.828670
vt 1.000000 0.853367
vt 0.975310 0.853367
vt 0.975310 0.828670
vt 0.996114 0.589246
vt 0.971417 0.589246
vt 0.971417 0.512439
vt 0.996114 0.512439
vt 0.000000 0.806776
vt 0.000000 0.576268
vt 0.082324 0.576268
vt 0.082324 0.806776
vt 0.996114 0.666052
vt 0.971417 0.666052
vt 0.971417 0.589246
vt 0.996114 0.589246
vt 0.740917 0.493796
vt 0.740917 0.724303
vt 0.658593 0.724303
vt 0.658593 0.493796
vt 0.946727 0.215058
vt 0.922030 0.215058
vt 0.922030 0.000000
vt 0.946727 0.000000
vt 0.922030 0.215058
vt 0.946727 0.215058
vt 0.946727 0.430115
vt 0.922030 0.430115
vt 0.971417 0.512439
vt 0.971417 0.430115
vt 0.996107 0.430115
vt 0.996107 0.512439
vt 0.823241 0.985085
vt 0.823241 0.960388
vt 0.847938 0.960388
vt 0.847938 0.985085
vt 0.469218 0.987716
vt 0.469218 0.905392
vt 0.493907 0.905392
vt 0.493907 0.987716
vt 0.688808 0.971226
vt 0.688808 0.995923
vt 0.664110 0.995923
vt 0.664110 0.971226
vt 0.946727 0.660623
vt 0.946727 0.578299
vt 0.971417 0.578299
vt 0.971417 0.660623
vt 0.946727 0.512439
vt 0.946727 0.430115
vt 0.782066 0.984626
vt 0.782066 0.943464
vt 0.823216 0.943464
vt 0.823216 0.984626
vt 0.205798 0.979568
vt 0.205798 0.938406
vt 0.246960 0.938406
vt 0.246960 0.979568
vt 0.740917 0.984626
vt 0.740917 0.943464
vt 0.782066 0.943464
vt 0.782066 0.984626
vt 0.123498 0.938406
vt 0.123498 0.979568
vt 0.082336 0.979568
vt 0.082336 0.938406
vt 0.576269 0.985086
vt 0.576269 0.943924
vt 0.617418 0.943924
vt 0.617418 0.985086
vt 0.535094 0.943924
vt 0.535094 0.985086
vt 0.493945 0.985086
vt 0.493945 0.943924
vt 0.971425 0.095455
vt 0.971425 0.070757
vt 0.996114 0.070757
vt 0.996114 0.095455
vt 0.823241 0.675057
vt 0.823241 0.000000
vt 0.847938 0.000000
vt 0.847938 0.675057
vt 0.971425 0.225520
vt 0.971425 0.200823
vt 0.996114 0.200823
vt 0.996114 0.225520
vt 0.872635 0.000000
vt 0.872635 0.675057
vt 0.847938 0.675057
vt 0.847938 0.000000
vt 0.897333 0.674855
vt 0.872635 0.674855
vt 0.872635 0.000000
vt 0.897333 0.000000
vt 0.897333 0.000000
vt 0.922030 0.000000
vt 0.922030 0.674855
vt 0.897333 0.674855
vt 0.493944 0.943924
vt 0.493944 0.894529
vt 0.543324 0.894529
vt 0.543324 0.943924
vt 0.864403 0.910994
vt 0.905565 0.910994
vt 0.905565 0.960388
vt 0.864403 0.960388
vt 0.576269 0.943924
vt 0.576269 0.894529
vt 0.625648 0.894529
vt 0.625648 0.943924
vt 0.864403 0.960388
vt 0.823241 0.960388
vt 0.823241 0.910994
vt 0.864403 0.910994
vt 0.164648 0.987800
vt 0.164648 0.938406
vt 0.205798 0.938406
vt 0.205798 0.987800
vt 0.164648 0.938406
vt 0.164648 0.987800
vt 0.123498 0.987800
vt 0.123498 0.938406
vt 0.378676 0.954786
vt 0.378676 0.905392
vt 0.428055 0.905392
vt 0.428055 0.954786
vt 0.905565 0.910994
vt 0.946727 0.910994
vt 0.946727 0.960388
vt 0.905565 0.960388
vt 0.329296 0.954786
vt 0.329296 0.905392
vt 0.378676 0.905392
vt 0.378676 0.954786
vt 0.469217 0.954786
vt 0.428055 0.954786
vt 0.428055 0.905392
vt 0.469217 0.905392
vt 0.000000 0.976591
vt 0.000000 0.927196
vt 0.041150 0.927196
vt 0.041150 0.976591
vt 0.082299 0.927196
vt 0.082299 0.976591
vt 0.041150 0.976591
vt 0.041150 0.927196
vn 0.0000 0.0000 -1.0000
vn 1.0000 0.0000 0.0000
vn 0.0000 0.0000 1.0000
vn -1.0000 0.0000 0.0000
vn 0.0000 1.0000 0.0000
vn 0.0000 -1.0000 0.0000
vn 0.0000 -0.3827 -0.9239
vn 0.0000 0.3827 0.9239
vn 0.0000 0.9239 -0.3827
vn 0.0000 -0.9239 0.3827
vn 0.0000 0.3827 -0.9239
vn 0.0000 -0.3827 0.9239
vn 0.0000 0.9239 0.3827
vn 0.0000 -0.9239 -0.3827
vn 0.0000 0.7071 -0.7071
vn 0.0000 -0.7071 0.7071
vn 0.0000 0.7071 0.7071
vn 0.0000 -0.7071 -0.7071
usemtl Материал
s off
f 4/1/1 7/2/1 5/3/1 2/4/1
f 3/5/2 4/6/2 2/7/2 1/8/2
f 8/9/3 3/10/3 1/11/3 6/12/3
f 7/13/4 8/14/4 6/15/4 5/16/4
f 6/17/5 1/18/5 2/19/5 5/20/5
f 7/21/6 4/22/6 3/23/6 8/24/6
f 12/25/7 15/26/7 13/27/7 10/28/7
f 11/29/2 12/30/2 10/31/2 9/32/2
f 16/33/8 11/34/8 9/35/8 14/36/8
f 15/37/4 16/38/4 14/39/4 13/40/4
f 14/41/9 9/42/9 10/43/9 13/44/9
f 15/45/10 12/46/10 11/47/10 16/48/10
f 20/49/7 23/50/7 21/51/7 18/52/7
f 19/53/2 20/54/2 18/55/2 17/56/2
f 24/57/8 19/58/8 17/59/8 22/60/8
f 23/61/4 24/62/4 22/63/4 21/64/4
f 22/65/9 17/66/9 18/67/9 21/68/9
f 23/69/10 20/70/10 19/71/10 24/72/10
f 28/73/1 31/74/1 29/75/1 26/76/1
f 27/77/2 28/78/2 26/79/2 25/80/2
f 32/81/3 27/82/3 25/83/3 30/84/3
f 31/85/4 32/86/4 30/87/4 29/88/4
f 30/89/5 25/90/5 26/79/5 29/91/5
f 31/92/6 28/93/6 27/94/6 32/95/6
f 36/96/11 39/97/11 37/98/11 34/99/11
f 35/100/2 36/101/2 34/102/2 33/103/2
f 40/104/12 35/105/12 33/106/12 38/107/12
f 39/108/4 40/109/4 38/110/4 37/111/4
f 38/112/13 33/113/13 34/114/13 37/115/13
f 39/116/14 36/117/14 35/118/14 40/119/14
f 44/120/1 47/121/1 45/122/1 42/123/1
f 43/124/2 44/125/2 42/126/2 41/127/2
f 48/128/3 43/129/3 41/130/3 46/131/3
f 47/132/4 48/133/4 46/134/4 45/135/4
f 46/136/5 41/137/5 42/138/5 45/139/5
f 47/140/6 44/141/6 43/142/6 48/143/6
f 52/144/1 55/145/1 53/146/1 50/147/1
f 51/148/2 52/149/2 50/150/2 49/151/2
f 56/152/3 51/153/3 49/154/3 54/155/3
f 55/156/4 56/157/4 54/158/4 53/159/4
f 54/160/5 49/161/5 50/162/5 53/163/5
f 55/164/6 52/165/6 51/166/6 56/167/6
f 60/168/15 63/169/15 61/170/15 58/171/15
f 59/172/2 60/173/2 58/174/2 57/175/2
f 64/176/16 59/177/16 57/178/16 62/179/16
f 63/180/4 64/181/4 62/182/4 61/183/4
f 62/184/17 57/185/17 58/186/17 61/187/17
f 63/188/18 60/189/18 59/190/18 64/191/18
f 68/192/18 71/193/18 69/194/18 66/195/18
f 67/196/2 68/197/2 66/198/2 65/199/2
f 72/200/17 67/201/17 65/202/17 70/203/17
f 71/204/4 72/205/4 70/206/4 69/207/4
f 70/208/15 65/209/15 66/210/15 69/211/15
f 71/212/16 68/213/16 67/214/16 72/215/16
f 76/216/1 79/217/1 77/218/1 74/219/1
f 75/220/2 76/221/2 74/222/2 73/223/2
f 80/224/3 75/225/3 73/226/3 78/227/3
f 79/228/4 80/229/4 78/230/4 77/231/4
f 78/232/5 73/233/5 74/234/5 77/235/5
f 79/236/6 76/237/6 75/238/6 80/239/6
f 84/240/11 87/241/11 85/242/11 82/243/11
f 83/244/2 84/245/2 82/246/2 81/247/2
f 88/248/12 83/249/12 81/250/12 86/251/12
f 87/252/4 88/253/4 86/254/4 85/255/4
f 86/256/13 81/257/13 82/258/13 85/259/13
f 87/260/14 84/261/14 83/262/14 88/263/14
f 92/264/1 95/265/1 93/266/1 90/267/1
f 91/268/2 92/269/2 90/270/2 89/271/2
f 96/272/3 91/273/3 89/274/3 94/275/3
f 95/276/4 96/277/4 94/278/4 93/279/4
f 94/280/5 89/281/5 90/282/5 93/283/5
f 95/284/6 92/285/6 91/286/6 96/287/6
f 100/288/7 103/289/7 101/290/7 98/291/7
f 99/292/2 100/293/2 98/294/2 97/295/2
f 104/296/8 99/297/8 97/298/8 102/299/8
f 103/300/4 104/301/4 102/302/4 101/303/4
f 102/304/9 97/305/9 98/306/9 101/307/9
f 103/308/10 100/309/10 99/310/10 104/311/10
f 108/312/1 111/313/1 109/314/1 106/315/1
f 107/316/2 108/317/2 106/318/2 105/319/2
f 112/320/3 107/321/3 105/322/3 110/323/3
f 111/324/4 112/325/4 110/326/4 109/327/4
f 110/328/5 105/329/5 106/330/5 109/331/5
f 111/313/6 108/312/6 107/332/6 112/333/6
f 116/334/1 119/335/1 117/336/1 114/337/1
f 115/338/2 116/339/2 114/340/2 113/341/2
f 120/342/3 115/343/3 113/344/3 118/345/3
f 119/346/4 120/347/4 118/348/4 117/349/4
f 118/350/5 113/351/5 114/352/5 117/353/5
f 119/354/6 116/355/6 115/356/6 120/357/6
f 124/358/1 127/359/1 125/360/1 122/361/1
f 123/362/2 124/363/2 122/364/2 121/365/2
f 128/366/3 123/367/3 121/368/3 126/369/3
f 127/370/4 128/371/4 126/372/4 125/373/4
f 126/374/5 121/375/5 122/376/5 125/377/5
f 127/378/6 124/379/6 123/380/6 128/381/6
f 132/382/1 135/383/1 133/384/1 130/385/1
f 131/386/2 132/387/2 130/388/2 129/389/2
f 136/390/3 131/391/3 129/392/3 134/393/3
f 135/394/4 136/395/4 134/396/4 133/397/4
f 134/398/5 129/399/5 130/400/5 133/401/5
f 135/402/6 132/403/6 131/404/6 136/405/6
f 140/406/1 143/407/1 141/408/1 138/409/1
f 139/410/2 140/411/2 138/412/2 137/413/2
f 144/414/3 139/415/3 137/416/3 142/417/3
f 143/418/4 144/419/4 142/420/4 141/421/4
f 142/422/5 137/423/5 138/424/5 141/425/5
f 143/426/6 140/427/6 139/428/6 144/429/6
