# Blender 3.5.1
# www.blender.org
mtllib mosinblend.mtl
o cube.008
v -0.018750 -0.418750 -0.143750
v -0.018750 -0.418750 -0.162500
v -0.018750 -0.481250 -0.143750
v -0.018750 -0.481250 -0.162500
v -0.037500 -0.418750 -0.162500
v -0.037500 -0.418750 -0.143750
v -0.037500 -0.481250 -0.162500
v -0.037500 -0.481250 -0.143750
v 0.000000 -0.351540 -0.348246
v 0.000000 -0.423293 -0.521474
v 0.000000 -0.467025 -0.300411
v 0.000000 -0.538778 -0.473638
v -0.062500 -0.423293 -0.521474
v -0.062500 -0.351540 -0.348246
v -0.062500 -0.538778 -0.473638
v -0.062500 -0.467025 -0.300411
v 0.000000 -0.361447 -0.208844
v 0.000000 -0.409283 -0.324329
v 0.000000 -0.419190 -0.184926
v 0.000000 -0.467025 -0.300411
v -0.062500 -0.409283 -0.324329
v -0.062500 -0.361447 -0.208844
v -0.062500 -0.467025 -0.300411
v -0.062500 -0.419190 -0.184926
v 0.000000 -0.293750 0.225000
v 0.000000 -0.293750 -0.212500
v 0.000000 -0.418750 0.225000
v 0.000000 -0.418750 -0.212500
v -0.062500 -0.293750 -0.212500
v -0.062500 -0.293750 0.225000
v -0.062500 -0.418750 -0.212500
v -0.062500 -0.418750 0.225000
v 0.000000 -0.390360 -0.258402
v 0.000000 -0.352091 -0.350790
v 0.000000 -0.448102 -0.282320
v 0.000000 -0.409834 -0.374708
v -0.062500 -0.352091 -0.350790
v -0.062500 -0.390360 -0.258402
v -0.062500 -0.409834 -0.374708
v -0.062500 -0.448102 -0.282320
v 0.000000 -0.293750 0.537500
v 0.000000 -0.293750 0.162500
v 0.000000 -0.356250 0.537500
v 0.000000 -0.356250 0.162500
v -0.062500 -0.293750 0.162500
v -0.062500 -0.293750 0.537500
v -0.062500 -0.356250 0.162500
v -0.062500 -0.356250 0.537500
v -0.018750 -0.481250 -0.031250
v -0.018750 -0.481250 -0.143750
v -0.018750 -0.500000 -0.031250
v -0.018750 -0.500000 -0.143750
v -0.037500 -0.481250 -0.143750
v -0.037500 -0.481250 -0.031250
v -0.037500 -0.500000 -0.143750
v -0.037500 -0.500000 -0.031250
v -0.018750 -0.486742 -0.128455
v -0.018750 -0.464645 -0.150552
v -0.018750 -0.500000 -0.141713
v -0.018750 -0.477903 -0.163810
v -0.037500 -0.464645 -0.150552
v -0.037500 -0.486742 -0.128455
v -0.037500 -0.477903 -0.163810
v -0.037500 -0.500000 -0.141713
v -0.018750 -0.464645 -0.017969
v -0.018750 -0.486742 -0.040066
v -0.018750 -0.477903 -0.004711
v -0.018750 -0.500000 -0.026808
v -0.037500 -0.486742 -0.040066
v -0.037500 -0.464645 -0.017969
v -0.037500 -0.500000 -0.026808
v -0.037500 -0.477903 -0.004711
v -0.018750 -0.418750 -0.006250
v -0.018750 -0.418750 -0.025000
v -0.018750 -0.481250 -0.006250
v -0.018750 -0.481250 -0.025000
v -0.037500 -0.418750 -0.025000
v -0.037500 -0.418750 -0.006250
v -0.037500 -0.481250 -0.025000
v -0.037500 -0.481250 -0.006250
v -0.018750 -0.409324 -0.099708
v -0.018750 -0.402149 -0.117031
v -0.018750 -0.449744 -0.116450
v -0.018750 -0.442568 -0.133773
v -0.037500 -0.402149 -0.117031
v -0.037500 -0.409324 -0.099708
v -0.037500 -0.442568 -0.133773
v -0.037500 -0.449744 -0.116450
v -0.018750 -0.437500 -0.112500
v -0.018750 -0.437500 -0.131250
v -0.018750 -0.468750 -0.112500
v -0.018750 -0.468750 -0.131250
v -0.037500 -0.437500 -0.131250
v -0.037500 -0.437500 -0.112500
v -0.037500 -0.468750 -0.131250
v -0.037500 -0.468750 -0.112500
v -0.018750 -0.357994 0.135395
v -0.018750 -0.424964 -0.026284
v -0.018750 -0.415737 0.159312
v -0.018750 -0.482706 -0.002367
v -0.037500 -0.424964 -0.026284
v -0.037500 -0.357994 0.135395
v -0.037500 -0.482706 -0.002367
v -0.037500 -0.415737 0.159312
v -0.043750 -0.275000 -0.131250
v -0.043750 -0.275000 -0.150000
v -0.043750 -0.293750 -0.131250
v -0.043750 -0.293750 -0.150000
v -0.106250 -0.275000 -0.150000
v -0.106250 -0.275000 -0.131250
v -0.106250 -0.293750 -0.150000
v -0.106250 -0.293750 -0.131250
v -0.106250 -0.268750 -0.125000
v -0.106250 -0.268750 -0.156250
v -0.106250 -0.300000 -0.125000
v -0.106250 -0.300000 -0.156250
v -0.137500 -0.268750 -0.156250
v -0.137500 -0.268750 -0.125000
v -0.137500 -0.300000 -0.156250
v -0.137500 -0.300000 -0.125000
v -0.025000 -0.275000 0.312500
v -0.025000 -0.275000 -0.200000
v -0.025000 -0.293750 0.312500
v -0.025000 -0.293750 -0.200000
v -0.043750 -0.275000 -0.200000
v -0.043750 -0.275000 0.312500
v -0.043750 -0.293750 -0.200000
v -0.043750 -0.293750 0.312500
v -0.012500 -0.256250 0.537500
v -0.012500 -0.256250 0.506250
v -0.012500 -0.293750 0.537500
v -0.012500 -0.293750 0.506250
v -0.050000 -0.256250 0.506250
v -0.050000 -0.256250 0.537500
v -0.050000 -0.293750 0.506250
v -0.050000 -0.293750 0.537500
v -0.012500 -0.306250 0.543750
v -0.012500 -0.306250 0.512500
v -0.012500 -0.343750 0.543750
v -0.012500 -0.343750 0.512500
v -0.050000 -0.306250 0.512500
v -0.050000 -0.306250 0.543750
v -0.050000 -0.343750 0.512500
v -0.050000 -0.343750 0.543750
vn -0.0000 -0.0000 -1.0000
vn 1.0000 -0.0000 -0.0000
vn -0.0000 -0.0000 1.0000
vn -1.0000 -0.0000 -0.0000
vn -0.0000 1.0000 -0.0000
vn -0.0000 -1.0000 -0.0000
vn -0.0000 -0.3827 -0.9239
vn -0.0000 0.3827 0.9239
vn -0.0000 0.9239 -0.3827
vn -0.0000 -0.9239 0.3827
vn -0.0000 0.3827 -0.9239
vn -0.0000 -0.3827 0.9239
vn -0.0000 0.9239 0.3827
vn -0.0000 -0.9239 -0.3827
vn -0.0000 0.7071 -0.7071
vn -0.0000 -0.7071 0.7071
vn -0.0000 0.7071 0.7071
vn -0.0000 -0.7071 -0.7071
vt 0.062500 1.000000
vt 0.018750 1.000000
vt 0.000000 1.000000
vt 0.018750 0.937500
vt 0.062500 0.981250
vt 0.000000 0.981250
vt 0.000000 1.000000
vt 0.018750 0.937500
vt 0.018750 1.000000
vt 0.018750 1.000000
vt 0.000000 0.981250
vt 0.018750 0.981250
vt 0.000000 0.937500
vt 0.000000 0.981250
vt 0.018750 0.981250
vt 0.000000 1.000000
vt 0.018750 1.000000
vt 0.000000 1.000000
vt 0.062500 0.981250
vt 0.000000 0.981250
vt 0.000000 0.937500
vt 0.062500 1.000000
vt 0.000000 1.000000
vt 0.250000 0.812500
vt 0.500000 0.812500
vt 0.312500 0.437500
vt 0.250000 0.812500
vt 0.500000 0.812500
vt 0.312500 0.812500
vt 0.250000 0.437500
vt 0.500000 0.437500
vt 0.500000 0.812500
vt 0.250000 0.437500
vt 0.500000 0.437500
vt 0.500000 0.812500
vt 0.250000 0.812500
vt 0.250000 0.812500
vt 0.500000 0.812500
vt 0.250000 0.437500
vt 0.500000 0.437500
vt 0.250000 0.437500
vt 0.437500 0.437500
vt 0.250000 0.437500
vt 0.500000 0.437500
vt 0.437500 0.812500
vt 0.250000 0.875000
vt 0.250000 1.000000
vt 0.375000 1.000000
vt 0.250000 0.875000
vt 0.250000 1.000000
vt 0.375000 0.875000
vt 0.375000 1.000000
vt 0.250000 1.000000
vt 0.375000 0.875000
vt 0.375000 1.000000
vt 0.250000 1.000000
vt 0.250000 0.906250
vt 0.250000 0.875000
vt 0.250000 0.875000
vt 0.250000 1.000000
vt 0.375000 0.875000
vt 0.375000 1.000000
vt 0.328125 0.906250
vt 0.375000 0.875000
vt 0.375000 0.875000
vt 0.328125 1.000000
vt 0.250000 0.875000
vt 0.187500 0.437500
vt 0.187500 0.875000
vt 0.140625 0.859375
vt 0.187500 0.437500
vt 0.187500 0.875000
vt 0.015625 0.859375
vt 0.312500 0.437500
vt 0.312500 0.875000
vt 0.296875 0.875000
vt 0.312500 0.437500
vt 0.312500 0.875000
vt 0.421875 0.875000
vt 0.187500 0.875000
vt 0.187500 0.437500
vt 0.015625 0.421875
vt 0.187500 0.437500
vt 0.187500 0.875000
vt 0.140625 0.421875
vt 0.312500 0.875000
vt 0.312500 0.437500
vt 0.421875 0.437500
vt 0.312500 0.437500
vt 0.312500 0.875000
vt 0.296875 0.437500
vt 0.296875 0.859375
vt 0.396875 0.859375
vt 0.396875 0.796875
vt 0.296875 0.859375
vt 0.396875 0.859375
vt 0.296875 0.796875
vt 0.396875 0.796875
vt 0.396875 0.859375
vt 0.296875 0.796875
vt 0.396875 0.796875
vt 0.396875 0.859375
vt 0.296875 0.859375
vt 0.296875 0.859375
vt 0.396875 0.859375
vt 0.296875 0.796875
vt 0.396875 0.796875
vt 0.296875 0.796875
vt 0.296875 0.796875
vt 0.396875 0.796875
vt 0.296875 0.859375
vt 0.000000 1.000000
vt 0.250000 1.000000
vt 0.250000 0.937500
vt 0.000000 1.000000
vt 0.250000 1.000000
vt 0.000000 0.937500
vt 0.250000 0.937500
vt 0.250000 1.000000
vt 0.000000 0.937500
vt 0.250000 0.937500
vt 0.250000 1.000000
vt 0.000000 1.000000
vt 0.000000 1.000000
vt 0.250000 1.000000
vt 0.000000 0.937500
vt 0.250000 0.937500
vt 0.000000 0.937500
vt 0.000000 0.937500
vt 0.250000 0.937500
vt 0.000000 1.000000
vt 0.000000 1.000000
vt 0.018750 1.000000
vt 0.018750 0.887500
vt 0.000000 1.000000
vt 0.112500 1.000000
vt 0.018750 1.000000
vt 0.000000 0.981250
vt 0.018750 0.981250
vt 0.018750 1.000000
vt 0.000000 0.981250
vt 0.112500 0.981250
vt 0.018750 0.887500
vt 0.018750 1.000000
vt 0.000000 1.000000
vt 0.000000 1.000000
vt 0.112500 1.000000
vt 0.000000 0.887500
vt 0.018750 0.981250
vt 0.000000 0.981250
vt 0.000000 0.887500
vt 0.000000 0.981250
vt 0.112500 0.981250
vt 0.000000 1.000000
vt 0.000000 1.000000
vt 0.018750 1.000000
vt 0.018750 0.968750
vt 0.000000 1.000000
vt 0.031250 1.000000
vt 0.018750 1.000000
vt 0.000000 0.981250
vt 0.018750 0.981250
vt 0.018750 1.000000
vt 0.000000 0.981250
vt 0.031250 0.981250
vt 0.018750 0.968750
vt 0.018750 1.000000
vt 0.000000 1.000000
vt 0.000000 1.000000
vt 0.031250 1.000000
vt 0.000000 0.968750
vt 0.018750 0.981250
vt 0.000000 0.981250
vt 0.000000 0.968750
vt 0.000000 0.981250
vt 0.031250 0.981250
vt 0.000000 1.000000
vt 0.000000 1.000000
vt 0.018750 1.000000
vt 0.018750 0.968750
vt 0.000000 1.000000
vt 0.031250 1.000000
vt 0.018750 1.000000
vt 0.000000 0.981250
vt 0.018750 0.981250
vt 0.018750 1.000000
vt 0.000000 0.981250
vt 0.031250 0.981250
vt 0.018750 0.968750
vt 0.018750 1.000000
vt 0.000000 1.000000
vt 0.000000 1.000000
vt 0.031250 1.000000
vt 0.000000 0.968750
vt 0.018750 0.981250
vt 0.000000 0.981250
vt 0.000000 0.968750
vt 0.000000 0.981250
vt 0.031250 0.981250
vt 0.000000 1.000000
vt 0.062500 1.000000
vt 0.018750 1.000000
vt 0.000000 1.000000
vt 0.018750 0.937500
vt 0.062500 0.981250
vt 0.000000 0.981250
vt 0.000000 1.000000
vt 0.018750 0.937500
vt 0.018750 1.000000
vt 0.018750 1.000000
vt 0.000000 0.981250
vt 0.018750 0.981250
vt 0.000000 0.937500
vt 0.000000 0.981250
vt 0.018750 0.981250
vt 0.000000 1.000000
vt 0.018750 1.000000
vt 0.000000 1.000000
vt 0.062500 0.981250
vt 0.000000 0.981250
vt 0.000000 0.937500
vt 0.062500 1.000000
vt 0.000000 1.000000
vt 0.000000 0.981250
vt 0.018750 1.000000
vt 0.018750 0.981250
vt 0.018750 0.956250
vt 0.000000 1.000000
vt 0.018750 1.000000
vt 0.043750 0.981250
vt 0.018750 0.956250
vt 0.000000 0.981250
vt 0.018750 1.000000
vt 0.043750 1.000000
vt 0.000000 1.000000
vt 0.000000 0.956250
vt 0.043750 1.000000
vt 0.000000 1.000000
vt 0.000000 1.000000
vt 0.043750 0.981250
vt 0.000000 0.981250
vt 0.000000 1.000000
vt 0.018750 1.000000
vt 0.000000 0.956250
vt 0.000000 0.981250
vt 0.018750 0.981250
vt 0.000000 0.981250
vt 0.018750 1.000000
vt 0.018750 0.981250
vt 0.018750 0.968750
vt 0.000000 1.000000
vt 0.018750 1.000000
vt 0.031250 0.981250
vt 0.018750 0.968750
vt 0.000000 0.981250
vt 0.018750 1.000000
vt 0.031250 1.000000
vt 0.000000 1.000000
vt 0.000000 0.968750
vt 0.031250 1.000000
vt 0.000000 1.000000
vt 0.000000 1.000000
vt 0.031250 0.981250
vt 0.000000 0.981250
vt 0.000000 1.000000
vt 0.018750 1.000000
vt 0.000000 0.968750
vt 0.000000 0.981250
vt 0.018750 0.981250
vt 0.062500 1.000000
vt 0.018750 1.000000
vt 0.000000 1.000000
vt 0.018750 0.937500
vt 0.062500 0.825000
vt 0.000000 0.825000
vt 0.000000 1.000000
vt 0.018750 0.937500
vt 0.018750 1.000000
vt 0.018750 1.000000
vt 0.000000 0.825000
vt 0.018750 0.825000
vt 0.000000 0.937500
vt 0.000000 0.825000
vt 0.018750 0.825000
vt 0.000000 1.000000
vt 0.018750 1.000000
vt 0.000000 1.000000
vt 0.062500 0.825000
vt 0.000000 0.825000
vt 0.000000 0.937500
vt 0.062500 1.000000
vt 0.000000 1.000000
vt 0.515625 0.937500
vt 0.703125 0.937500
vt 0.703125 0.750000
vt 0.515625 0.937500
vt 0.703125 0.937500
vt 0.515625 0.750000
vt 0.703125 0.750000
vt 0.703125 0.937500
vt 0.515625 0.750000
vt 0.703125 0.750000
vt 0.703125 0.937500
vt 0.515625 0.937500
vt 0.515625 0.937500
vt 0.703125 0.937500
vt 0.515625 0.750000
vt 0.703125 0.750000
vt 0.515625 0.750000
vt 0.515625 0.750000
vt 0.703125 0.750000
vt 0.515625 0.937500
vt 0.500000 1.000000
vt 0.687500 1.000000
vt 0.687500 0.812500
vt 0.500000 1.000000
vt 0.687500 1.000000
vt 0.500000 0.812500
vt 0.687500 0.812500
vt 0.687500 1.000000
vt 0.500000 0.812500
vt 0.687500 0.812500
vt 0.687500 1.000000
vt 0.500000 1.000000
vt 0.500000 1.000000
vt 0.687500 1.000000
vt 0.500000 0.812500
vt 0.687500 0.812500
vt 0.500000 0.812500
vt 0.500000 0.812500
vt 0.687500 0.812500
vt 0.500000 1.000000
vt 0.625000 0.937500
vt 0.625000 0.437500
vt 0.625000 0.937500
vt 0.625000 0.437500
vt 0.625000 0.937500
vt 0.625000 0.437500
vt 0.625000 0.937500
vt 0.625000 0.937500
vt 0.625000 0.437500
vt 0.625000 0.437500
vt 0.625000 0.437500
vt 0.625000 0.937500
vt 0.562500 0.875000
vt 0.687500 0.875000
vt 0.687500 0.750000
vt 0.562500 0.875000
vt 0.687500 0.875000
vt 0.562500 0.750000
vt 0.687500 0.750000
vt 0.687500 0.875000
vt 0.562500 0.750000
vt 0.687500 0.750000
vt 0.687500 0.875000
vt 0.562500 0.875000
vt 0.562500 0.875000
vt 0.687500 0.875000
vt 0.562500 0.750000
vt 0.687500 0.750000
vt 0.562500 0.750000
vt 0.562500 0.750000
vt 0.687500 0.750000
vt 0.562500 0.875000
vt 0.562500 0.875000
vt 0.687500 0.875000
vt 0.687500 0.750000
vt 0.562500 0.875000
vt 0.687500 0.875000
vt 0.562500 0.750000
vt 0.687500 0.750000
vt 0.687500 0.875000
vt 0.562500 0.750000
vt 0.687500 0.750000
vt 0.687500 0.875000
vt 0.562500 0.875000
vt 0.562500 0.875000
vt 0.687500 0.875000
vt 0.562500 0.750000
vt 0.687500 0.750000
vt 0.562500 0.750000
vt 0.562500 0.750000
vt 0.687500 0.750000
vt 0.562500 0.875000
s 0
usemtl m_4d0e32aa-8091-acc6-076c-c644053e1f0d
f 4/10/1 7/18/1 5/13/1 2/4/1
f 3/7/2 4/11/2 2/5/2 1/1/2
f 8/21/3 3/8/3 1/2/3 6/16/3
f 7/19/4 8/22/4 6/16/4 5/14/4
f 6/17/5 1/3/5 2/6/5 5/15/5
f 7/20/6 4/12/6 3/9/6 8/23/6
f 12/33/7 15/40/7 13/35/7 10/27/7
f 11/30/2 12/34/2 10/28/2 9/24/2
f 16/43/8 11/31/8 9/25/8 14/37/8
f 15/41/4 16/44/4 14/38/4 13/36/4
f 14/39/9 9/26/9 10/29/9 13/36/9
f 15/42/10 12/34/10 11/32/10 16/45/10
f 20/54/7 23/62/7 21/56/7 18/49/7
f 19/51/2 20/55/2 18/50/2 17/46/2
f 24/65/8 19/52/8 17/47/8 22/59/8
f 23/63/4 24/66/4 22/60/4 21/57/4
f 22/61/9 17/48/9 18/50/9 21/58/9
f 23/64/10 20/55/10 19/53/10 24/67/10
f 28/77/1 31/86/1 29/80/1 26/71/1
f 27/74/2 28/78/2 26/72/2 25/68/2
f 32/89/3 27/75/3 25/69/3 30/83/3
f 31/87/4 32/90/4 30/84/4 29/81/4
f 30/85/5 25/70/5 26/73/5 29/82/5
f 31/88/6 28/79/6 27/76/6 32/91/6
f 36/100/11 39/107/11 37/102/11 34/95/11
f 35/97/2 36/101/2 34/96/2 33/92/2
f 40/109/12 35/98/12 33/93/12 38/104/12
f 39/108/4 40/110/4 38/105/4 37/103/4
f 38/106/13 33/94/13 34/96/13 37/103/13
f 39/108/14 36/101/14 35/99/14 40/111/14
f 44/120/1 47/127/1 45/122/1 42/115/1
f 43/117/2 44/121/2 42/116/2 41/112/2
f 48/129/3 43/118/3 41/113/3 46/124/3
f 47/128/4 48/130/4 46/125/4 45/123/4
f 46/126/5 41/114/5 42/116/5 45/123/5
f 47/128/6 44/121/6 43/119/6 48/131/6
f 52/141/1 55/149/1 53/144/1 50/135/1
f 51/138/2 52/142/2 50/136/2 49/132/2
f 56/152/3 51/139/3 49/133/3 54/146/3
f 55/150/4 56/153/4 54/147/4 53/145/4
f 54/148/5 49/134/5 50/137/5 53/145/5
f 55/151/6 52/143/6 51/140/6 56/154/6
f 60/164/15 63/172/15 61/167/15 58/158/15
f 59/161/2 60/165/2 58/159/2 57/155/2
f 64/175/16 59/162/16 57/156/16 62/169/16
f 63/173/4 64/176/4 62/170/4 61/168/4
f 62/171/17 57/157/17 58/160/17 61/168/17
f 63/174/18 60/166/18 59/163/18 64/177/18
f 68/187/18 71/195/18 69/190/18 66/181/18
f 67/184/2 68/188/2 66/182/2 65/178/2
f 72/198/17 67/185/17 65/179/17 70/192/17
f 71/196/4 72/199/4 70/193/4 69/191/4
f 70/194/15 65/180/15 66/183/15 69/191/15
f 71/197/16 68/189/16 67/186/16 72/200/16
f 76/210/1 79/218/1 77/213/1 74/204/1
f 75/207/2 76/211/2 74/205/2 73/201/2
f 80/221/3 75/208/3 73/202/3 78/216/3
f 79/219/4 80/222/4 78/216/4 77/214/4
f 78/217/5 73/203/5 74/206/5 77/215/5
f 79/220/6 76/212/6 75/209/6 80/223/6
f 84/233/11 87/242/11 85/236/11 82/227/11
f 83/230/2 84/234/2 82/228/2 81/224/2
f 88/244/12 83/231/12 81/225/12 86/239/12
f 87/242/4 88/245/4 86/240/4 85/237/4
f 86/241/13 81/226/13 82/229/13 85/238/13
f 87/243/14 84/235/14 83/232/14 88/246/14
f 92/256/1 95/265/1 93/259/1 90/250/1
f 91/253/2 92/257/2 90/251/2 89/247/2
f 96/267/3 91/254/3 89/248/3 94/262/3
f 95/265/4 96/268/4 94/263/4 93/260/4
f 94/264/5 89/249/5 90/252/5 93/261/5
f 95/266/6 92/258/6 91/255/6 96/269/6
f 100/279/7 103/287/7 101/282/7 98/273/7
f 99/276/2 100/280/2 98/274/2 97/270/2
f 104/290/8 99/277/8 97/271/8 102/285/8
f 103/288/4 104/291/4 102/285/4 101/283/4
f 102/286/9 97/272/9 98/275/9 101/284/9
f 103/289/10 100/281/10 99/278/10 104/292/10
f 108/301/1 111/308/1 109/303/1 106/296/1
f 107/298/2 108/302/2 106/297/2 105/293/2
f 112/310/3 107/299/3 105/294/3 110/305/3
f 111/309/4 112/311/4 110/306/4 109/304/4
f 110/307/5 105/295/5 106/297/5 109/304/5
f 111/309/6 108/302/6 107/300/6 112/312/6
f 116/321/1 119/328/1 117/323/1 114/316/1
f 115/318/2 116/322/2 114/317/2 113/313/2
f 120/330/3 115/319/3 113/314/3 118/325/3
f 119/329/4 120/331/4 118/326/4 117/324/4
f 118/327/5 113/315/5 114/317/5 117/324/5
f 119/329/6 116/322/6 115/320/6 120/332/6
f 124/338/1 127/342/1 125/339/1 122/335/1
f 123/336/2 124/338/2 122/335/2 121/333/2
f 128/343/3 123/336/3 121/333/3 126/340/3
f 127/342/4 128/343/4 126/340/4 125/339/4
f 126/341/5 121/334/5 122/335/5 125/339/5
f 127/342/6 124/338/6 123/337/6 128/344/6
f 132/353/1 135/360/1 133/355/1 130/348/1
f 131/350/2 132/354/2 130/349/2 129/345/2
f 136/362/3 131/351/3 129/346/3 134/357/3
f 135/361/4 136/363/4 134/358/4 133/356/4
f 134/359/5 129/347/5 130/349/5 133/356/5
f 135/361/6 132/354/6 131/352/6 136/364/6
f 140/373/1 143/380/1 141/375/1 138/368/1
f 139/370/2 140/374/2 138/369/2 137/365/2
f 144/382/3 139/371/3 137/366/3 142/377/3
f 143/381/4 144/383/4 142/378/4 141/376/4
f 142/379/5 137/367/5 138/369/5 141/376/5
f 143/381/6 140/374/6 139/372/6 144/384/6
